<?xml version="1.0" standalone="no"?>
<!DOCTYPE svg PUBLIC "-//W3C//DTD SVG 20010904//EN"
 "http://www.w3.org/TR/2001/REC-SVG-20010904/DTD/svg10.dtd">
<svg version="1.0" xmlns="http://www.w3.org/2000/svg"
 width="2373.000000pt" height="443.000000pt" viewBox="0 0 2373.000000 443.000000"
 preserveAspectRatio="xMidYMid meet">
<metadata>
Created by potrace 1.16, written by Peter Selinger 2001-2019
</metadata>
<g transform="translate(0.000000,443.000000) scale(0.100000,-0.100000)"
fill="#000000" stroke="none">
<path d="M8680 4423 c-19 -2 -102 -10 -185 -19 -320 -32 -508 -69 -735 -144
-335 -112 -621 -272 -940 -526 -180 -143 -500 -465 -690 -694 -388 -467 -719
-814 -940 -984 -358 -277 -699 -433 -1140 -520 -174 -35 -269 -46 -460 -54
-137 -6 -165 -10 -165 -22 0 -13 46 -16 320 -23 454 -11 1095 -3 1275 17 536
59 796 128 1151 307 447 226 832 555 1299 1114 455 544 738 827 1036 1037 387
272 876 435 1404 468 91 5 180 10 198 10 20 0 32 5 32 13 0 11 -35 15 -152 20
-154 7 -1244 7 -1308 0z"/>
<path d="M10690 4423 c-19 -2 -102 -10 -185 -19 -320 -32 -508 -69 -735 -144
-593 -197 -1097 -581 -1680 -1279 -522 -625 -833 -920 -1191 -1132 -377 -223
-814 -347 -1299 -367 -137 -6 -165 -10 -165 -22 0 -13 46 -16 320 -23 176 -4
502 -6 725 -3 795 9 1216 88 1675 315 465 231 845 553 1325 1126 496 592 761
853 1085 1069 311 208 660 340 1068 406 105 17 384 40 485 40 20 0 32 5 32 13
0 11 -35 15 -152 20 -154 7 -1244 7 -1308 0z"/>
<path d="M10 2945 l0 -1285 220 0 220 0 0 1285 0 1285 -220 0 -220 0 0 -1285z"/>
<path d="M1000 2945 l0 -1285 618 0 c687 0 739 4 913 64 131 44 198 86 295
182 65 64 90 97 122 165 59 121 76 199 76 354 0 149 -16 229 -66 332 -59 122
-197 237 -342 287 -15 5 -8 13 40 41 167 99 263 282 264 502 0 235 -94 427
-260 528 -72 44 -213 91 -313 104 -49 7 -318 11 -713 11 l-634 0 0 -1285z
m1237 902 c181 -53 251 -149 241 -331 -9 -168 -86 -259 -257 -304 -42 -11
-145 -16 -423 -19 l-368 -5 0 342 0 342 378 -5 c303 -3 387 -7 429 -20z m11
-1027 c108 -18 171 -47 233 -109 64 -64 86 -118 96 -226 14 -172 -57 -315
-191 -380 -100 -49 -159 -55 -573 -55 l-383 0 0 390 0 390 378 0 c208 0 405
-5 440 -10z"/>
<path d="M3420 2945 l0 -1285 220 0 220 0 0 505 0 505 360 0 c199 0 404 5 457
11 196 22 328 84 448 211 78 83 140 193 170 303 23 81 31 332 15 431 -27 172
-87 292 -199 404 -87 87 -176 138 -298 172 -76 22 -95 22 -735 26 l-658 3 0
-1286z m1189 890 c78 -19 154 -59 188 -100 93 -109 117 -334 52 -485 -24 -56
-92 -124 -147 -147 -94 -40 -140 -45 -494 -50 l-348 -5 0 401 0 401 343 0
c270 0 356 -3 406 -15z"/>
</g>
</svg>
